<?xml version="1.0" standalone="no"?>
<!DOCTYPE svg PUBLIC "-//W3C//DTD SVG 20010904//EN"
 "http://www.w3.org/TR/2001/REC-SVG-20010904/DTD/svg10.dtd">
<svg version="1.0" xmlns="http://www.w3.org/2000/svg"
 width="512.000000pt" height="512.000000pt" viewBox="0 0 512.000000 512.000000"
 preserveAspectRatio="xMidYMid meet">
<metadata>
Created by potrace 1.14, written by Peter Selinger 2001-2017
</metadata>
<g transform="translate(0.000000,512.000000) scale(0.100000,-0.100000)"
fill="#000000" stroke="none">
<path d="M922 4953 c-7 -3 -19 -18 -27 -33 -13 -25 -15 -112 -15 -572 l0 -544
-248 -148 c-471 -282 -527 -316 -540 -333 -10 -14 -12 -334 -10 -1570 3 -1475
4 -1553 21 -1570 17 -17 129 -18 2458 -18 l2440 0 19 25 c19 24 20 62 20 1562
0 874 -4 1547 -9 1560 -7 19 -148 113 -274 183 -10 6 -130 77 -267 160 l-250
149 0 544 c0 586 -1 592 -52 606 -28 7 -3247 7 -3266 -1z m3158 -1171 l0
-1017 -450 -270 c-248 -149 -586 -352 -753 -452 -166 -100 -308 -182 -316
-183 -7 0 -52 24 -100 53 -47 28 -94 57 -104 62 -10 6 -310 186 -668 400
l-649 390 0 1018 0 1017 1520 0 1520 0 0 -1018z m-3200 -541 l0 -380 -292 176
c-161 97 -304 182 -317 189 l-24 13 34 20 c19 11 160 97 314 190 154 93 281
169 283 170 1 1 2 -170 2 -378z m3975 -1 c0 -6 -138 -93 -307 -195 l-308 -184
0 379 0 379 308 -184 c169 -102 307 -189 307 -195z m-3176 -1046 c2 -2 -276
-425 -619 -939 l-623 -935 -99 0 -98 0 0 1370 0 1369 718 -430 c394 -237 719
-433 721 -435z m3201 -504 l0 -1370 -103 0 -104 0 -309 467 c-170 258 -382
578 -471 713 -89 135 -166 250 -172 257 -6 7 -11 14 -11 16 0 3 -61 96 -135
208 -74 111 -135 205 -135 208 0 5 112 75 219 137 20 12 203 122 406 244 204
123 381 229 395 237 14 7 113 67 220 132 107 66 196 120 198 120 1 1 2 -615 2
-1369z m-2702 206 c189 -114 357 -209 372 -213 24 -4 82 27 367 198 186 111
348 209 359 216 20 13 28 3 195 -249 95 -145 326 -495 514 -778 188 -283 372
-562 410 -620 38 -58 73 -111 78 -118 8 -9 -377 -12 -1917 -12 l-1926 0 596
895 c328 492 600 893 603 891 3 -2 161 -97 349 -210z"/>
<path d="M1485 4711 c-46 -19 -46 -13 -43 -803 3 -702 4 -748 21 -765 17 -17
76 -18 1092 -21 1061 -2 1075 -2 1095 18 41 41 33 112 -15 130 -17 6 -398 10
-1031 10 l-1004 0 0 683 c0 375 -3 692 -6 705 -6 22 -51 53 -76 51 -7 0 -22
-4 -33 -8z"/>
<path d="M2992 4542 c-16 -16 -69 -111 -277 -497 -68 -125 -134 -248 -191
-356 l-57 -107 -36 42 c-20 23 -94 112 -165 199 -140 169 -167 190 -216 166
-34 -16 -290 -352 -290 -380 0 -55 52 -98 103 -85 15 3 59 53 122 137 78 102
101 128 109 117 6 -8 85 -103 175 -211 138 -165 169 -198 196 -203 45 -8 74
13 110 83 17 31 54 100 83 151 28 52 52 96 52 99 0 2 31 61 69 131 109 200
157 290 213 394 l51 98 22 -33 c12 -17 88 -138 169 -269 155 -248 172 -267
229 -253 35 9 61 50 53 86 -3 15 -83 152 -178 303 -95 152 -186 297 -201 323
-16 26 -38 55 -50 65 -26 23 -72 23 -95 0z"/>
<path d="M1478 2944 c-49 -26 -47 -106 3 -131 19 -10 260 -13 1074 -13 578 0
1060 3 1072 6 59 16 68 110 13 139 -44 23 -2121 22 -2162 -1z"/>
<path d="M1808 2633 c-55 -14 -61 -111 -8 -138 44 -23 1476 -23 1520 0 51 26
50 106 -1 132 -18 10 -194 12 -759 12 -404 -1 -743 -3 -752 -6z"/>
</g>
</svg>
